<svg xmlns="http://www.w3.org/2000/svg" viewBox="0 0 301.9 83.2" width="301.9" height="83.2" xmlns:c2pa="http://c2pa.org/manifest"><metadata><c2pa:manifest>AAAWgmp1bWIAAAAeanVtZGMycGEAEQAQgAAAqgA4m3EDYzJwYQAAABZcanVtYgAAAEdqdW1kYzJtYQARABCAAACqADibcQN1cm46YzJwYTowZmViMDY1ZC03YWNlLTQ1Y2EtOTcxYi1iMzUyN2E5YjE4YWQAAAADl2p1bWIAAAApanVtZGMyYXMAEQAQgAAAqgA4m3EDYzJwYS5hc3NlcnRpb25zAAAAALxqdW1iAAAARGp1bWRjYm9yABEAEIAAAKoAOJtxE2MycGEuaW5ncmVkaWVudC52MwAAAAAYYzJzaITqz8OzwVRZ0NfvrvbN0T8AAABwY2JvcqNpZGM6Zm9ybWF0bWltYWdlL3N2Zyt4bWxqaW5zdGFuY2VJRHgseG1wOmlpZDo4YmViMjBkZS0yNjIzLTQ2N2EtYjM4OS1kNTM0Y2FmYWFlYTFscmVsYXRpb25zaGlwaHBhcmVudE9mAAAB4mp1bWIAAABBanVtZGNib3IAEQAQgAAAqgA4m3ETYzJwYS5hY3Rpb25zLnYyAAAAABhjMnNo3QiZZKR//gLlx47mVZq9UQAAAZljYm9yomdhY3Rpb25zgqJmYWN0aW9ua2MycGEub3BlbmVkanBhcmFtZXRlcnOha2luZ3JlZGllbnRzgaJjdXJseC1zZWxmI2p1bWJmPWMycGEuYXNzZXJ0aW9ucy9jMnBhLmluZ3JlZGllbnQudjNkaGFzaFggtjNv6b0R7J//JU1id7Bt87+vo8HgLDJNhcqpgkiqrq2kZmFjdGlvbngdY29tLmFudGhyb3BpYy5jbGF1ZGUucHJvdmlkZWRqcGFyYW1ldGVyc6F4H2NvbS5hbnRocm9waWMub3JpZ2luLWNvbmZpZGVuY2VndW5rbm93bmtkZXNjcmlwdGlvbnhmQ2xhdWRlIHByb3ZpZGVkIHRoaXMgZmlsZSBhdCB0aGUgcmVxdWVzdCBvZiBhIHVzZXIgYW5kIG1heSBoYXZlIGNyZWF0ZWQgb3IgbW9kaWZpZWQgdGhlIGZpbGUgY29udGVudHMubXNvZnR3YXJlQWdlbnShZG5hbWVmQ2xhdWRlcmFsbEFjdGlvbnNJbmNsdWRlZPUAAADIanVtYgAAAEBqdW1kY2JvcgARABCAAACqADibcRNjMnBhLmhhc2guZGF0YQAAAAAYYzJzaKlkGmBWDoLUu3qYx9UHL90AAACAY2JvcqVjYWxnZnNoYTI1NmNwYWRNAAAAAAAAAAAAAAAAAGRoYXNoWCCLfyVYRNmYuofxOurvb5zO2UnDGURMrunUDmNu3yzwxWRuYW1lbmp1bWJmIG1hbmlmZXN0amV4Y2x1c2lvbnOBomVzdGFydBicZmxlbmd0aBkeBAAAAj5qdW1iAAAAJ2p1bWRjMmNsABEAEIAAAKoAOJtxA2MycGEuY2xhaW0udjIAAAACD2Nib3KlY2FsZ2ZzaGEyNTZpc2lnbmF0dXJleE1zZWxmI2p1bWJmPS9jMnBhL3VybjpjMnBhOjBmZWIwNjVkLTdhY2UtNDVjYS05NzFiLWIzNTI3YTliMThhZC9jMnBhLnNpZ25hdHVyZWppbnN0YW5jZUlEeCx4bXA6aWlkOjgyODYzMWM3LTQxYWMtNGRhMC04MzMxLWNmOTUzZjVhNTc4NXJjcmVhdGVkX2Fzc2VydGlvbnODomN1cmx4LXNlbGYjanVtYmY9YzJwYS5hc3NlcnRpb25zL2MycGEuaW5ncmVkaWVudC52M2RoYXNoWCC2M2/pvRHsn/8lTWJ3sG3zv6+jweAsMk2FyqmCSKquraJjdXJseCpzZWxmI2p1bWJmPWMycGEuYXNzZXJ0aW9ucy9jMnBhLmFjdGlvbnMudjJkaGFzaFggz8KpKi1Cm7Z/4HyXjC01ZXf0vi8rlLrv4sruUj4VlUuiY3VybHgpc2VsZiNqdW1iZj1jMnBhLmFzc2VydGlvbnMvYzJwYS5oYXNoLmRhdGFkaGFzaFgg2kdlbuC1U83IypIQ56+2tgjHnsqyW+96+EiLnGWxdU50Y2xhaW1fZ2VuZXJhdG9yX2luZm+jZG5hbWVvQW50aHJvcGljIEZpbGVzZ3ZlcnNpb25lMS4wLjBrc3BlY1ZlcnNpb25lMi40LjAAABA4anVtYgAAAChqdW1kYzJjcwARABCAAACqADibcQNjMnBhLnNpZ25hdHVyZQAAABAIY2JvctKEWQISogEmGCFZAgowggIGMIIBjaADAgECAhRA5aAK7sI50L64g/oGQgU9Z1UTADAKBggqhkjOPQQDAzBJMRcwFQYDVQQKEw5BbnRocm9waWMsIFBCQzEuMCwGA1UEAxMlQW50aHJvcGljIENvbnRlbnQgQ3JlZGVudGlhbHMgUm9vdCBDQTAeFw0yNjA4MDcxODQzNTZaFw0yODA4MDYxOTQzNTZaMEQxFzAVBgNVBAoTDkFudGhyb3BpYywgUEJDMSkwJwYDVQQDEyBBbnRocm9waWMgQ2xhdWRlIENvbnRlbnQgU2lnbmluZzBZMBMGByqGSM49AgEGCCqGSM49AwEHA0IABJh6CmvLUBgFFNU0vUKlOVtE6djd17L5SuwX0LemFisBM3dkd/3cyjxFA3Qo5S46fX0/ihY0VZ7mfb9KF703t5OjWDBWMA4GA1UdDwEB/wQEAwIHgDAVBgNVHSUEDjAMBgorBgEEAYPoXgIBMAwGA1UdEwEB/wQCMAAwHwYDVR0jBBgwFoAUzlHiBIFOZFsj+OPEz5o+nMHXXMIwCgYIKoZIzj0EAwMDZwAwZAIwMXMdFJ4BetLLVY7ORuE9noqbbAZOZn/aArXyTwFAZfKrPzxF2vPoJNf1+UCdg1XGAjBwX1zd9WGqYkqmL5SFqw1QySjr1zJfpJM9+1rdDwSPLMOPOjKuiXjoU/pUUeG9RwmhY3BhZFkNngAAAAAAAAAAAAAAAAAAAAAAAAAAAAAAAAAAAAAAAAAAAAAAAAAAAAAAAAAAAAAAAAAAAAAAAAAAAAAAAAAAAAAAAAAAAAAAAAAAAAAAAAAAAAAAAAAAAAAAAAAAAAAAAAAAAAAAAAAAAAAAAAAAAAAAAAAAAAAAAAAAAAAAAAAAAAAAAAAAAAAAAAAAAAAAAAAAAAAAAAAAAAAAAAAAAAAAAAAAAAAAAAAAAAAAAAAAAAAAAAAAAAAAAAAAAAAAAAAAAAAAAAAAAAAAAAAAAAAAAAAAAAAAAAAAAAAAAAAAAAAAAAAAAAAAAAAAAAAAAAAAAAAAAAAAAAAAAAAAAAAAAAAAAAAAAAAAAAAAAAAAAAAAAAAAAAAAAAAAAAAAAAAAAAAAAAAAAAAAAAAAAAAAAAAAAAAAAAAAAAAAAAAAAAAAAAAAAAAAAAAAAAAAAAAAAAAAAAAAAAAAAAAAAAAAAAAAAAAAAAAAAAAAAAAAAAAAAAAAAAAAAAAAAAAAAAAAAAAAAAAAAAAAAAAAAAAAAAAAAAAAAAAAAAAAAAAAAAAAAAAAAAAAAAAAAAAAAAAAAAAAAAAAAAAAAAAAAAAAAAAAAAAAAAAAAAAAAAAAAAAAAAAAAAAAAAAAAAAAAAAAAAAAAAAAAAAAAAAAAAAAAAAAAAAAAAAAAAAAAAAAAAAAAAAAAAAAAAAAAAAAAAAAAAAAAAAAAAAAAAAAAAAAAAAAAAAAAAAAAAAAAAAAAAAAAAAAAAAAAAAAAAAAAAAAAAAAAAAAAAAAAAAAAAAAAAAAAAAAAAAAAAAAAAAAAAAAAAAAAAAAAAAAAAAAAAAAAAAAAAAAAAAAAAAAAAAAAAAAAAAAAAAAAAAAAAAAAAAAAAAAAAAAAAAAAAAAAAAAAAAAAAAAAAAAAAAAAAAAAAAAAAAAAAAAAAAAAAAAAAAAAAAAAAAAAAAAAAAAAAAAAAAAAAAAAAAAAAAAAAAAAAAAAAAAAAAAAAAAAAAAAAAAAAAAAAAAAAAAAAAAAAAAAAAAAAAAAAAAAAAAAAAAAAAAAAAAAAAAAAAAAAAAAAAAAAAAAAAAAAAAAAAAAAAAAAAAAAAAAAAAAAAAAAAAAAAAAAAAAAAAAAAAAAAAAAAAAAAAAAAAAAAAAAAAAAAAAAAAAAAAAAAAAAAAAAAAAAAAAAAAAAAAAAAAAAAAAAAAAAAAAAAAAAAAAAAAAAAAAAAAAAAAAAAAAAAAAAAAAAAAAAAAAAAAAAAAAAAAAAAAAAAAAAAAAAAAAAAAAAAAAAAAAAAAAAAAAAAAAAAAAAAAAAAAAAAAAAAAAAAAAAAAAAAAAAAAAAAAAAAAAAAAAAAAAAAAAAAAAAAAAAAAAAAAAAAAAAAAAAAAAAAAAAAAAAAAAAAAAAAAAAAAAAAAAAAAAAAAAAAAAAAAAAAAAAAAAAAAAAAAAAAAAAAAAAAAAAAAAAAAAAAAAAAAAAAAAAAAAAAAAAAAAAAAAAAAAAAAAAAAAAAAAAAAAAAAAAAAAAAAAAAAAAAAAAAAAAAAAAAAAAAAAAAAAAAAAAAAAAAAAAAAAAAAAAAAAAAAAAAAAAAAAAAAAAAAAAAAAAAAAAAAAAAAAAAAAAAAAAAAAAAAAAAAAAAAAAAAAAAAAAAAAAAAAAAAAAAAAAAAAAAAAAAAAAAAAAAAAAAAAAAAAAAAAAAAAAAAAAAAAAAAAAAAAAAAAAAAAAAAAAAAAAAAAAAAAAAAAAAAAAAAAAAAAAAAAAAAAAAAAAAAAAAAAAAAAAAAAAAAAAAAAAAAAAAAAAAAAAAAAAAAAAAAAAAAAAAAAAAAAAAAAAAAAAAAAAAAAAAAAAAAAAAAAAAAAAAAAAAAAAAAAAAAAAAAAAAAAAAAAAAAAAAAAAAAAAAAAAAAAAAAAAAAAAAAAAAAAAAAAAAAAAAAAAAAAAAAAAAAAAAAAAAAAAAAAAAAAAAAAAAAAAAAAAAAAAAAAAAAAAAAAAAAAAAAAAAAAAAAAAAAAAAAAAAAAAAAAAAAAAAAAAAAAAAAAAAAAAAAAAAAAAAAAAAAAAAAAAAAAAAAAAAAAAAAAAAAAAAAAAAAAAAAAAAAAAAAAAAAAAAAAAAAAAAAAAAAAAAAAAAAAAAAAAAAAAAAAAAAAAAAAAAAAAAAAAAAAAAAAAAAAAAAAAAAAAAAAAAAAAAAAAAAAAAAAAAAAAAAAAAAAAAAAAAAAAAAAAAAAAAAAAAAAAAAAAAAAAAAAAAAAAAAAAAAAAAAAAAAAAAAAAAAAAAAAAAAAAAAAAAAAAAAAAAAAAAAAAAAAAAAAAAAAAAAAAAAAAAAAAAAAAAAAAAAAAAAAAAAAAAAAAAAAAAAAAAAAAAAAAAAAAAAAAAAAAAAAAAAAAAAAAAAAAAAAAAAAAAAAAAAAAAAAAAAAAAAAAAAAAAAAAAAAAAAAAAAAAAAAAAAAAAAAAAAAAAAAAAAAAAAAAAAAAAAAAAAAAAAAAAAAAAAAAAAAAAAAAAAAAAAAAAAAAAAAAAAAAAAAAAAAAAAAAAAAAAAAAAAAAAAAAAAAAAAAAAAAAAAAAAAAAAAAAAAAAAAAAAAAAAAAAAAAAAAAAAAAAAAAAAAAAAAAAAAAAAAAAAAAAAAAAAAAAAAAAAAAAAAAAAAAAAAAAAAAAAAAAAAAAAAAAAAAAAAAAAAAAAAAAAAAAAAAAAAAAAAAAAAAAAAAAAAAAAAAAAAAAAAAAAAAAAAAAAAAAAAAAAAAAAAAAAAAAAAAAAAAAAAAAAAAAAAAAAAAAAAAAAAAAAAAAAAAAAAAAAAAAAAAAAAAAAAAAAAAAAAAAAAAAAAAAAAAAAAAAAAAAAAAAAAAAAAAAAAAAAAAAAAAAAAAAAAAAAAAAAAAAAAAAAAAAAAAAAAAAAAAAAAAAAAAAAAAAAAAAAAAAAAAAAAAAAAAAAAAAAAAAAAAAAAAAAAAAAAAAAAAAAAAAAAAAAAAAAAAAAAAAAAAAAAAAAAAAAAAAAAAAAAAAAAAAAAAAAAAAAAAAAAAAAAAAAAAAAAAAAAAAAAAAAAAAAAAAAAAAAAAAAAAAAAAAAAAAAAAAAAAAAAAAAAAAAAAAAAAAAAAAAAAAAAAAAAAAAAAAAAAAAAAAAAAAAAAAAAAAAAAAAAAAAAAAAAAAAAAAAAAAAAAAAAAAAAAAAAAAAAAAAAAAAAAAAAAAAAAAAAAAAAAAAAAAAAAAAAAAAAAAAAAAAAAAAAAAAAAAAAAAAAAAAAAAAAAAAAAAAAAAAAAAAAAAAAAAAAAAAAAAAAAAAAAAAAAAAAAAAAAAAAAAAAAAAAAAAAAAAAAAAAAAAAAAAAAAAAAAAAAAAAAAAAAAAAAAAAAAAAAAAAAAAAAAAAAAAAAAAAAAAAAAAAAAAAAAAAAAAAAAAAAAAAAAAAAAAAAAAAAAAAAAAAAAAAAAAAAAAAAAAAAAAAAAAAAAAAAAAAAAAAAAAAAAAAAAAAAAAAAAAAAAAAAAAAAAAAAAAAAAAAAAAAAAAAAAAAAAAAAAAAAAAAAAAAAAAAAAAAAAAAAAAAAAAAAAAAAAAAAAAAAAAAAAAAAAAAAAAAAAAAAAAAAAAAAAAAAAAAAAAAAAAAAAAAAAAAAAAAAAAAAAAAAAAAAAAAAAAAAAAAAAAAAAAAAAAAAAAAAAAAAAAAAAAAAAAAAAAAAAAAAAAAAAAAAAAAAAAAAAAAAAAAAAAAAAAAAAAAAAAAAAAAAAAAAAAAAAAAAAAAAAAAAAAAAAAAAAAAAAAAAAAAAAAAAAAAAAAAAAAAAAAAAAAAAAAAAAAAAAAAAAAAAAAAAAAAAAAAAAAAAAAAAAAAAAAAAAAAAAAAAAAAAAAAAAAAAAAAAAAAAAAAAAAAAAAAAAAAAAAAAAAAAAAAAAAAAAAAAAAAAAAAAAAAAAAAAAAAAAAAAAAAAAAAAAAAAAAAAAAAAAAAAAAAAAAAAAAAAAAAAAAAAAAAAAAAAAAAAAAAAAAAAAAAAAAAAAAAAAAAAAAAAAAAAAAAAAAAAAAAAAAAAAAAAAAAAAAAAAAAAAAAAAAAAAAAAAAAAAAAAAAAAAAAAAAAAAAAAAAAAAAAAAAAAAAAAAAAAAAAAAAAAAAAAAAAAAAAAAAAAAAAAAAAAAAAAAAAAAAAAAAAAAAAAAAAAAAAAAAAAAAAAAAAAAAAAAAAAAAAAAAAAAAAAAAAAAAAAAAAAAAAAAAAAAAAAAAAAAAAAAAAAAAAAAAAAAAAAAAAAAAAAAAAAAAAAAAAAAAAAAAAAAAAAAAAAAAAAAAAAAAAAAAAAAAAAAAAAAAAAAAAAAAAAAAAAAAAAAAAAAAAAAAAAAAAAAAAAAAAAAAAAAAAAAAAAAAAAAAAAAAAAAAAAAAAAAAAAAAAAAAAAAAAAAAAAAAAAAAAAAAAAAAAAAAAAAAAAAAAAAAAAAAAAAAAAAAAAAAAAAAAAAAAAAAAAAAAAAAAAAAAAAAAAAAAAAAAAAAAAAAAAAAAAAAAAAAAAAAAAAAAAAAAAAAAAAAAAAAAAAAAAAAAAAAAAAAAAAAAAAAAAAAAAAAAAAAAAAAAAAAAAAAAAAAAAAAAAAAAAAAAAAAAAAAAAAAAAAAAAAAAAAAAAAAAAAAAAAAAAAAAAAAAAAAAAAAAAAAAAAAAAPZYQJVExFxsUPegQIyIGY27yZm/2N4jN6Qot5ylnYd9q3aYfUDglSP+zns9NTDe5IZOIZJOxhVF2kaesVvb14eqJbY=</c2pa:manifest></metadata>
  <!-- brewbook のワードマーク。IBM Plex Serif 500 をパスにしたもの (塗りは roast #4a2f1c 固定)。 -->
  <path fill="#4a2f1c" d="M22.59 66.36Q18.62 66.36 16.22 64.63Q13.82 62.91 12.8 60.60H12.48L8.89 65.6H5.76V22.84L1.40 22.01V19.19L12.92 16.95V37.31H13.24Q14.27 35.00 16.57 33.27Q18.88 31.55 22.59 31.55Q25.66 31.55 28.16 32.73Q30.65 33.91 32.38 36.16Q34.11 38.39 35.07 41.63Q36.03 44.86 36.03 48.95Q36.03 53.05 35.07 56.28Q34.11 59.51 32.38 61.75Q30.65 63.99 28.16 65.18Q25.66 66.36 22.59 66.36ZM20.35 61.75Q24.0 61.75 26.17 59.26Q28.35 56.76 28.35 52.35V45.56Q28.35 41.15 26.17 38.65Q24.0 36.16 20.35 36.16Q18.88 36.16 17.56 36.57Q16.25 36.99 15.2 37.82Q14.14 38.65 13.53 39.80Q12.92 40.95 12.92 42.43V55.48Q12.92 56.95 13.53 58.11Q14.14 59.26 15.2 60.09Q16.25 60.92 17.56 61.34Q18.88 61.75 20.35 61.75Z M41.15 62.14H45.50V37.44L41.15 36.60V33.79L52.48 31.55V37.50H52.8Q53.24 36.35 53.92 35.29Q54.59 34.23 55.58 33.40Q56.57 32.57 57.88 32.06Q59.2 31.55 60.86 31.55Q63.80 31.55 65.56 33.02Q67.32 34.49 67.32 37.24Q67.32 39.42 66.20 40.67Q65.08 41.91 63.16 41.91Q61.18 41.91 60.06 40.86Q58.94 39.80 58.94 38.20Q58.94 37.11 59.39 36.38Q59.84 35.64 60.48 35.51V35.32Q60.28 35.26 60.03 35.23Q59.77 35.19 59.26 35.19Q58.04 35.19 56.86 35.83Q55.68 36.47 54.75 37.47Q53.82 38.46 53.24 39.71Q52.67 40.95 52.67 42.17V62.14H58.30V65.6H41.15Z M85.63 66.36Q81.92 66.36 79.03 65.11Q76.16 63.87 74.17 61.56Q72.19 59.26 71.13 56.06Q70.08 52.86 70.08 48.95Q70.08 44.99 71.19 41.79Q72.32 38.59 74.33 36.31Q76.35 34.04 79.13 32.8Q81.92 31.55 85.24 31.55Q88.64 31.55 91.32 32.67Q94.01 33.79 95.90 35.83Q97.79 37.88 98.81 40.76Q99.84 43.64 99.84 47.16V48.89H77.82V50.94Q77.82 55.93 80.32 58.65Q82.81 61.37 87.03 61.37Q90.75 61.37 93.02 59.74Q95.29 58.11 96.38 55.67L99.13 57.34Q98.56 59.00 97.44 60.60Q96.32 62.20 94.65 63.48Q92.99 64.76 90.75 65.56Q88.51 66.36 85.63 66.36ZM77.82 45.50H92.41V44.8Q92.41 40.19 90.65 37.66Q88.89 35.13 85.24 35.13Q81.66 35.13 79.74 37.59Q77.82 40.06 77.82 44.67Z M105.85 35.77H102.65V32.31H117.37V35.77H113.08L118.91 58.55H119.23L126.59 32.31H132.48L139.83 58.55H140.16L145.98 35.77H141.69V32.31H153.15V35.77H149.95L141.50 65.6H135.48L128.06 40.70H127.74L120.32 65.6H114.30Z M176.0 66.36Q172.03 66.36 169.63 64.63Q167.23 62.91 166.20 60.60H165.88L162.30 65.6H159.16V22.84L154.81 22.01V19.19L166.33 16.95V37.31H166.65Q167.67 35.00 169.98 33.27Q172.28 31.55 176.0 31.55Q179.07 31.55 181.56 32.73Q184.06 33.91 185.79 36.16Q187.51 38.39 188.48 41.63Q189.44 44.86 189.44 48.95Q189.44 53.05 188.48 56.28Q187.51 59.51 185.79 61.75Q184.06 63.99 181.56 65.18Q179.07 66.36 176.0 66.36ZM173.76 61.75Q177.40 61.75 179.58 59.26Q181.76 56.76 181.76 52.35V45.56Q181.76 41.15 179.58 38.65Q177.40 36.16 173.76 36.16Q172.28 36.16 170.97 36.57Q169.66 36.99 168.60 37.82Q167.55 38.65 166.94 39.80Q166.33 40.95 166.33 42.43V55.48Q166.33 56.95 166.94 58.11Q167.55 59.26 168.60 60.09Q169.66 60.92 170.97 61.34Q172.28 61.75 173.76 61.75Z M210.04 62.59Q214.07 62.59 215.96 60.09Q217.85 57.59 217.85 53.44V44.47Q217.85 40.31 215.96 37.82Q214.07 35.32 210.04 35.32Q206.01 35.32 204.12 37.82Q202.23 40.31 202.23 44.47V53.44Q202.23 57.59 204.12 60.09Q206.01 62.59 210.04 62.59ZM210.04 66.36Q206.52 66.36 203.64 65.15Q200.76 63.93 198.71 61.69Q196.67 59.45 195.55 56.22Q194.43 52.99 194.43 48.95Q194.43 44.92 195.55 41.69Q196.67 38.46 198.71 36.22Q200.76 33.98 203.64 32.76Q206.52 31.55 210.04 31.55Q213.56 31.55 216.44 32.76Q219.32 33.98 221.37 36.22Q223.42 38.46 224.54 41.69Q225.66 44.92 225.66 48.95Q225.66 52.99 224.54 56.22Q223.42 59.45 221.37 61.69Q219.32 63.93 216.44 65.15Q213.56 66.36 210.04 66.36Z M246.01 62.59Q250.04 62.59 251.93 60.09Q253.82 57.59 253.82 53.44V44.47Q253.82 40.31 251.93 37.82Q250.04 35.32 246.01 35.32Q241.98 35.32 240.09 37.82Q238.20 40.31 238.20 44.47V53.44Q238.20 57.59 240.09 60.09Q241.98 62.59 246.01 62.59ZM246.01 66.36Q242.49 66.36 239.61 65.15Q236.73 63.93 234.68 61.69Q232.64 59.45 231.51 56.22Q230.39 52.99 230.39 48.95Q230.39 44.92 231.51 41.69Q232.64 38.46 234.68 36.22Q236.73 33.98 239.61 32.76Q242.49 31.55 246.01 31.55Q249.53 31.55 252.41 32.76Q255.29 33.98 257.34 36.22Q259.39 38.46 260.51 41.69Q261.63 44.92 261.63 48.95Q261.63 52.99 260.51 56.22Q259.39 59.45 257.34 61.69Q255.29 63.93 252.41 65.15Q249.53 66.36 246.01 66.36Z M265.66 62.14H270.01V22.84L265.66 22.01V19.19L277.18 16.95V49.72H277.50L282.24 44.35L290.11 35.77H285.95V32.31H300.09V35.77H295.36L286.91 44.47L298.24 62.14H301.50V65.6H286.59V62.14H290.17L282.11 49.02L277.18 54.20V62.14H281.40V65.6H265.66Z"/>
</svg>
